<?xml version="1.0" encoding="UTF-8" standalone="no"?>
<!-- Created with Inkscape (http://www.inkscape.org/) -->

<svg
   version="1.1"
   id="svg17840"
   width="66.546661"
   height="66.541328"
   viewBox="0 0 66.546661 66.541328"
   xmlns="http://www.w3.org/2000/svg"
   xmlns:svg="http://www.w3.org/2000/svg">
  <defs
     id="defs17844">
    <clipPath
       clipPathUnits="userSpaceOnUse"
       id="clipPath17862">
      <path
         d="M 0,0 H 142 V 50 H 0 Z"
         id="path17860" />
    </clipPath>
    <clipPath
       clipPathUnits="userSpaceOnUse"
       id="clipPath17876">
      <path
         d="M 0,0 H 142 V 50 H 0 Z"
         id="path17874" />
    </clipPath>
    <clipPath
       clipPathUnits="userSpaceOnUse"
       id="clipPath17890">
      <path
         d="M 0,0 H 142 V 50 H 0 Z"
         id="path17888" />
    </clipPath>
    <clipPath
       clipPathUnits="userSpaceOnUse"
       id="clipPath17904">
      <path
         d="M 0,0 H 142 V 50 H 0 Z"
         id="path17902" />
    </clipPath>
    <clipPath
       clipPathUnits="userSpaceOnUse"
       id="clipPath17918">
      <path
         d="M 0,0 H 142 V 50 H 0 Z"
         id="path17916" />
    </clipPath>
    <clipPath
       clipPathUnits="userSpaceOnUse"
       id="clipPath17932">
      <path
         d="M 0,0 H 142 V 50 H 0 Z"
         id="path17930" />
    </clipPath>
    <clipPath
       clipPathUnits="userSpaceOnUse"
       id="clipPath17946">
      <path
         d="M 0,0 H 142 V 50 H 0 Z"
         id="path17944" />
    </clipPath>
    <clipPath
       clipPathUnits="userSpaceOnUse"
       id="clipPath17960">
      <path
         d="M 0,0 H 142 V 50 H 0 Z"
         id="path17958" />
    </clipPath>
    <clipPath
       clipPathUnits="userSpaceOnUse"
       id="clipPath17974">
      <path
         d="M 0,0 H 142 V 50 H 0 Z"
         id="path17972" />
    </clipPath>
    <clipPath
       clipPathUnits="userSpaceOnUse"
       id="clipPath17988">
      <path
         d="M 0,0 H 142 V 50 H 0 Z"
         id="path17986" />
    </clipPath>
    <clipPath
       clipPathUnits="userSpaceOnUse"
       id="clipPath18002">
      <path
         d="M 0,0 H 142 V 50 H 0 Z"
         id="path18000" />
    </clipPath>
    <clipPath
       clipPathUnits="userSpaceOnUse"
       id="clipPath18016">
      <path
         d="M 0,0 H 142 V 50 H 0 Z"
         id="path18014" />
    </clipPath>
    <clipPath
       clipPathUnits="userSpaceOnUse"
       id="clipPath18030">
      <path
         d="M 0,0 H 142 V 50 H 0 Z"
         id="path18028" />
    </clipPath>
    <clipPath
       clipPathUnits="userSpaceOnUse"
       id="clipPath18044">
      <path
         d="M 0,0 H 142 V 50 H 0 Z"
         id="path18042" />
    </clipPath>
    <clipPath
       clipPathUnits="userSpaceOnUse"
       id="clipPath18058">
      <path
         d="M 0,0 H 142 V 50 H 0 Z"
         id="path18056" />
    </clipPath>
    <clipPath
       clipPathUnits="userSpaceOnUse"
       id="clipPath18072">
      <path
         d="M 0,0 H 142 V 50 H 0 Z"
         id="path18070" />
    </clipPath>
    <clipPath
       clipPathUnits="userSpaceOnUse"
       id="clipPath18086">
      <path
         d="M 0,0 H 142 V 50 H 0 Z"
         id="path18084" />
    </clipPath>
    <clipPath
       clipPathUnits="userSpaceOnUse"
       id="clipPath18100">
      <path
         d="M 0,0 H 142 V 50 H 0 Z"
         id="path18098" />
    </clipPath>
    <clipPath
       clipPathUnits="userSpaceOnUse"
       id="clipPath18114">
      <path
         d="M 0,0 H 142 V 50 H 0 Z"
         id="path18112" />
    </clipPath>
    <clipPath
       clipPathUnits="userSpaceOnUse"
       id="clipPath18128">
      <path
         d="M 0,0 H 142 V 50 H 0 Z"
         id="path18126" />
    </clipPath>
    <clipPath
       clipPathUnits="userSpaceOnUse"
       id="clipPath18142">
      <path
         d="M 0,0 H 142 V 50 H 0 Z"
         id="path18140" />
    </clipPath>
    <clipPath
       clipPathUnits="userSpaceOnUse"
       id="clipPath18156">
      <path
         d="M 0,0 H 142 V 50 H 0 Z"
         id="path18154" />
    </clipPath>
    <clipPath
       clipPathUnits="userSpaceOnUse"
       id="clipPath18170">
      <path
         d="M 0,0 H 142 V 50 H 0 Z"
         id="path18168" />
    </clipPath>
    <clipPath
       clipPathUnits="userSpaceOnUse"
       id="clipPath18184">
      <path
         d="M 0,0 H 142 V 50 H 0 Z"
         id="path18182" />
    </clipPath>
    <clipPath
       clipPathUnits="userSpaceOnUse"
       id="clipPath18198">
      <path
         d="M 0,0 H 142 V 50 H 0 Z"
         id="path18196" />
    </clipPath>
    <clipPath
       clipPathUnits="userSpaceOnUse"
       id="clipPath18212">
      <path
         d="M 0,0 H 142 V 50 H 0 Z"
         id="path18210" />
    </clipPath>
    <clipPath
       clipPathUnits="userSpaceOnUse"
       id="clipPath18226">
      <path
         d="M 0,0 H 142 V 50 H 0 Z"
         id="path18224" />
    </clipPath>
    <clipPath
       clipPathUnits="userSpaceOnUse"
       id="clipPath18240">
      <path
         d="M 0,0 H 142 V 50 H 0 Z"
         id="path18238" />
    </clipPath>
    <clipPath
       clipPathUnits="userSpaceOnUse"
       id="clipPath18254">
      <path
         d="M 0,0 H 142 V 50 H 0 Z"
         id="path18252" />
    </clipPath>
    <clipPath
       clipPathUnits="userSpaceOnUse"
       id="clipPath18268">
      <path
         d="M 0,0 H 142 V 50 H 0 Z"
         id="path18266" />
    </clipPath>
    <clipPath
       clipPathUnits="userSpaceOnUse"
       id="clipPath18282">
      <path
         d="M 0,0 H 142 V 50 H 0 Z"
         id="path18280" />
    </clipPath>
    <clipPath
       clipPathUnits="userSpaceOnUse"
       id="clipPath18296">
      <path
         d="M 0,0 H 142 V 50 H 0 Z"
         id="path18294" />
    </clipPath>
    <clipPath
       clipPathUnits="userSpaceOnUse"
       id="clipPath18310">
      <path
         d="M 0,0 H 142 V 50 H 0 Z"
         id="path18308" />
    </clipPath>
    <clipPath
       clipPathUnits="userSpaceOnUse"
       id="clipPath18324">
      <path
         d="M 0,0 H 142 V 50 H 0 Z"
         id="path18322" />
    </clipPath>
    <clipPath
       clipPathUnits="userSpaceOnUse"
       id="clipPath18338">
      <path
         d="M 0,0 H 142 V 50 H 0 Z"
         id="path18336" />
    </clipPath>
    <clipPath
       clipPathUnits="userSpaceOnUse"
       id="clipPath18352">
      <path
         d="M 0,0 H 142 V 50 H 0 Z"
         id="path18350" />
    </clipPath>
    <clipPath
       clipPathUnits="userSpaceOnUse"
       id="clipPath18366">
      <path
         d="M 0,0 H 142 V 50 H 0 Z"
         id="path18364" />
    </clipPath>
    <clipPath
       clipPathUnits="userSpaceOnUse"
       id="clipPath18380">
      <path
         d="M 0,0 H 142 V 50 H 0 Z"
         id="path18378" />
    </clipPath>
    <clipPath
       clipPathUnits="userSpaceOnUse"
       id="clipPath18394">
      <path
         d="M 0,0 H 142 V 50 H 0 Z"
         id="path18392" />
    </clipPath>
    <clipPath
       clipPathUnits="userSpaceOnUse"
       id="clipPath18408">
      <path
         d="M 0,0 H 142 V 50 H 0 Z"
         id="path18406" />
    </clipPath>
  </defs>
  <g
     id="g17854"
     transform="scale(1.3333333)">
    <g
       id="g17856">
      <g
         id="g17858"
         clip-path="url(#clipPath17862)">
        <g
           id="g17864">
          <path
             d="M 49.91,24.953 C 49.91,38.734 38.738,49.906 24.953,49.906 11.172,49.906 0,38.734 0,24.953 0,11.172 11.172,0 24.953,0 38.738,0 49.91,11.172 49.91,24.953"
             style="fill:#092744;fill-opacity:1;fill-rule:nonzero;stroke:none"
             id="path17866" />
        </g>
      </g>
    </g>
  </g>
  <g
     id="g17868"
     transform="scale(1.3333333)">
    <g
       id="g17870">
      <g
         id="g17872"
         clip-path="url(#clipPath17876)">
        <g
           id="g17878">
          <path
             d="M 24.953,49.176 C 11.598,49.176 0.734,38.309 0.734,24.953 0.734,11.598 11.598,0.734 24.953,0.734 c 13.356,0 24.223,10.864 24.223,24.219 0,13.356 -10.867,24.223 -24.223,24.223"
             style="fill:#c68a0f;fill-opacity:1;fill-rule:nonzero;stroke:none"
             id="path17880" />
        </g>
      </g>
    </g>
  </g>
  <g
     id="g17882"
     transform="scale(1.3333333)">
    <g
       id="g17884">
      <g
         id="g17886"
         clip-path="url(#clipPath17890)">
        <g
           id="g17892">
          <path
             d="m 24.953,43.715 c -10.344,0 -18.762,-8.414 -18.762,-18.762 0,-10.344 8.418,-18.762 18.762,-18.762 10.348,0 18.762,8.418 18.762,18.762 0,10.348 -8.414,18.762 -18.762,18.762 m 0,-42.481 c -13.078,0 -23.719,10.641 -23.719,23.719 0,13.082 10.641,23.723 23.719,23.723 13.082,0 23.723,-10.641 23.723,-23.723 0,-13.078 -10.641,-23.719 -23.723,-23.719"
             style="fill:#092744;fill-opacity:1;fill-rule:nonzero;stroke:none"
             id="path17894" />
        </g>
      </g>
    </g>
  </g>
  <g
     id="g17896"
     transform="scale(1.3333333)">
    <g
       id="g17898">
      <g
         id="g17900"
         clip-path="url(#clipPath17904)">
        <g
           id="g17906">
          <path
             d="M 24.953,42.719 C 15.16,42.719 7.191,34.75 7.191,24.953 7.191,15.16 15.16,7.191 24.953,7.191 c 9.797,0 17.766,7.969 17.766,17.762 0,9.797 -7.969,17.766 -17.766,17.766 m 0,-36.028 c -10.07,0 -18.262,8.192 -18.262,18.262 0,10.07 8.192,18.266 18.262,18.266 10.07,0 18.266,-8.196 18.266,-18.266 0,-10.07 -8.196,-18.262 -18.266,-18.262"
             style="fill:#092744;fill-opacity:1;fill-rule:nonzero;stroke:none"
             id="path17908" />
        </g>
      </g>
    </g>
  </g>
  <g
     id="g17910"
     transform="scale(1.3333333)">
    <g
       id="g17912">
      <g
         id="g17914"
         clip-path="url(#clipPath17918)">
        <g
           id="g17920">
          <path
             d="m 10.195,41.898 0.668,-0.089 0.004,0.671 0.391,-0.523 0.453,0.465 -0.094,-0.664 h 0.668 l -0.523,-0.383 0.496,-0.492 -0.668,0.09 -0.004,-0.672 -0.422,0.554 -0.461,-0.476 0.09,0.668 -0.66,0.008 0.523,0.379 z"
             style="fill:#ffffff;fill-opacity:1;fill-rule:nonzero;stroke:none"
             id="path17922" />
        </g>
      </g>
    </g>
  </g>
  <g
     id="g17924"
     transform="scale(1.3333333)">
    <g
       id="g17926">
      <g
         id="g17928"
         clip-path="url(#clipPath17932)">
        <g
           id="g17934">
          <path
             d="m 39.207,42.48 0.016,-0.695 0.687,0.106 -0.472,-0.481 0.546,-0.383 -0.691,-0.015 0.109,-0.684 -0.476,0.473 -0.422,-0.582 -0.012,0.695 -0.687,-0.105 0.496,0.519 -0.559,0.391 0.696,0.011 -0.102,0.676 0.473,-0.472 z"
             style="fill:#ffffff;fill-opacity:1;fill-rule:nonzero;stroke:none"
             id="path17936" />
        </g>
      </g>
    </g>
  </g>
  <g
     id="g17938"
     transform="scale(1.3333333)">
    <g
       id="g17940">
      <g
         id="g17942"
         clip-path="url(#clipPath17946)">
        <g
           id="g17948">
          <path
             d="m 17.828,44.898 -0.879,1.184 -0.488,-0.176 0.109,-1.765 C 16.566,44.07 16.539,44.008 16.484,43.988 l -0.074,-0.027 0.121,-0.344 0.907,0.328 -0.126,0.344 -0.175,-0.066 -0.098,1.121 0.008,0.004 0.887,-1.223 0.437,0.156 -0.094,1.512 0.012,0.004 0.477,-0.692 c 0.117,-0.16 0.125,-0.246 -0.036,-0.304 l -0.058,-0.02 0.121,-0.347 0.855,0.312 -0.125,0.344 -0.062,-0.028 C 19.395,45.043 19.32,45.055 19.27,45.133 l -1.032,1.418 -0.488,-0.176 0.086,-1.473 z"
             style="fill:#ffffff;fill-opacity:1;fill-rule:nonzero;stroke:none"
             id="path17950" />
        </g>
      </g>
    </g>
  </g>
  <g
     id="g17952"
     transform="scale(1.3333333)">
    <g
       id="g17954">
      <g
         id="g17956"
         clip-path="url(#clipPath17960)">
        <g
           id="g17962">
          <path
             d="m 20.852,45.656 c 0.05,-0.242 -0.055,-0.394 -0.254,-0.437 -0.2,-0.043 -0.36,0.051 -0.41,0.293 -0.051,0.238 0.054,0.394 0.253,0.437 0.2,0.043 0.36,-0.054 0.411,-0.293 m -0.168,1.582 c 0.027,-0.121 -0.032,-0.199 -0.243,-0.246 l -0.722,-0.156 c -0.031,0.059 -0.051,0.117 -0.063,0.184 -0.039,0.183 0.063,0.304 0.387,0.375 0.391,0.082 0.605,0.019 0.641,-0.157 m -1.547,-0.187 c 0.051,-0.242 0.269,-0.332 0.465,-0.367 -0.09,-0.075 -0.137,-0.207 -0.11,-0.344 0.039,-0.18 0.176,-0.293 0.336,-0.36 -0.152,-0.152 -0.215,-0.355 -0.168,-0.582 0.09,-0.418 0.492,-0.617 1.008,-0.507 0.102,0.023 0.195,0.054 0.281,0.093 l 0.746,0.161 -0.078,0.359 -0.125,-0.027 c -0.035,-0.008 -0.097,0.015 -0.105,0.054 0.011,0.071 0.008,0.157 -0.008,0.239 -0.09,0.414 -0.488,0.593 -1,0.484 C 20.23,46.223 20.105,46.172 20,46.113 c -0.023,0.043 -0.039,0.098 -0.047,0.133 -0.019,0.094 0.035,0.145 0.152,0.168 l 0.59,0.129 c 0.457,0.098 0.637,0.309 0.559,0.676 -0.098,0.449 -0.481,0.699 -1.313,0.519 -0.656,-0.14 -0.867,-0.394 -0.804,-0.687"
             style="fill:#ffffff;fill-opacity:1;fill-rule:nonzero;stroke:none"
             id="path17964" />
        </g>
      </g>
    </g>
  </g>
  <g
     id="g17966"
     transform="scale(1.3333333)">
    <g
       id="g17968">
      <g
         id="g17970"
         clip-path="url(#clipPath17974)">
        <g
           id="g17976">
          <path
             d="m 22.074,46.883 0.102,-1.195 c 0.004,-0.047 -0.047,-0.106 -0.094,-0.11 l -0.141,-0.012 0.032,-0.367 0.847,0.074 -0.125,1.473 c -0.019,0.234 0.09,0.309 0.278,0.328 0.16,0.012 0.328,-0.023 0.465,-0.066 l 0.113,-1.305 -0.285,-0.023 0.031,-0.364 0.887,0.075 -0.145,1.714 c -0.004,0.047 0.043,0.118 0.094,0.122 l 0.137,0.011 -0.028,0.344 -0.719,-0.062 c -0.07,-0.008 -0.101,-0.063 -0.101,-0.282 -0.215,0.172 -0.461,0.262 -0.809,0.231 -0.304,-0.024 -0.574,-0.164 -0.539,-0.586"
             style="fill:#ffffff;fill-opacity:1;fill-rule:nonzero;stroke:none"
             id="path17978" />
        </g>
      </g>
    </g>
  </g>
  <g
     id="g17980"
     transform="scale(1.3333333)">
    <g
       id="g17982">
      <g
         id="g17984"
         clip-path="url(#clipPath17988)">
        <g
           id="g17990">
          <path
             d="m 24.828,47.258 c 0,-0.188 0.149,-0.34 0.336,-0.344 0.188,0 0.344,0.145 0.344,0.332 0.004,0.188 -0.149,0.332 -0.336,0.336 -0.192,0.004 -0.34,-0.141 -0.344,-0.324"
             style="fill:#ffffff;fill-opacity:1;fill-rule:nonzero;stroke:none"
             id="path17992" />
        </g>
      </g>
    </g>
  </g>
  <g
     id="g17994"
     transform="scale(1.3333333)">
    <g
       id="g17996">
      <g
         id="g17998"
         clip-path="url(#clipPath18002)">
        <g
           id="g18004">
          <path
             d="m 26.48,46.191 0.844,-0.078 c -0.054,-0.379 -0.183,-0.515 -0.429,-0.496 -0.254,0.024 -0.403,0.195 -0.415,0.574 m 0.02,0.344 c 0.066,0.426 0.273,0.606 0.621,0.574 0.266,-0.023 0.356,-0.129 0.453,-0.277 l 0.344,-0.031 0.035,0.394 c -0.168,0.125 -0.394,0.25 -0.848,0.289 -0.75,0.071 -1.164,-0.316 -1.23,-1 -0.063,-0.695 0.332,-1.164 0.984,-1.222 0.649,-0.063 1.016,0.238 1.086,0.972 0.004,0.075 0.004,0.145 0.004,0.168 z"
             style="fill:#ffffff;fill-opacity:1;fill-rule:nonzero;stroke:none"
             id="path18006" />
        </g>
      </g>
    </g>
  </g>
  <g
     id="g18008"
     transform="scale(1.3333333)">
    <g
       id="g18010">
      <g
         id="g18012"
         clip-path="url(#clipPath18016)">
        <g
           id="g18018">
          <path
             d="M 30.004,46.469 29.75,45.301 c -0.113,-0.028 -0.27,-0.039 -0.41,-0.008 -0.281,0.062 -0.496,0.281 -0.379,0.816 0.125,0.586 0.398,0.68 0.641,0.625 0.187,-0.043 0.308,-0.14 0.402,-0.265 m -1.637,-0.211 c -0.176,-0.801 0.258,-1.231 0.668,-1.324 0.297,-0.063 0.496,0.007 0.668,0.144 l -0.133,-0.605 -0.273,0.062 -0.078,-0.347 0.769,-0.172 c 0.067,-0.012 0.11,0.031 0.129,0.117 l 0.492,2.254 c 0.008,0.043 0.075,0.097 0.125,0.086 l 0.145,-0.032 0.074,0.336 -0.723,0.157 c -0.062,0.015 -0.117,-0.067 -0.16,-0.211 -0.105,0.187 -0.293,0.347 -0.59,0.41 -0.425,0.094 -0.937,-0.059 -1.113,-0.875"
             style="fill:#ffffff;fill-opacity:1;fill-rule:nonzero;stroke:none"
             id="path18020" />
        </g>
      </g>
    </g>
  </g>
  <g
     id="g18022"
     transform="scale(1.3333333)">
    <g
       id="g18024">
      <g
         id="g18026"
         clip-path="url(#clipPath18030)">
        <g
           id="g18032">
          <path
             d="M 31.516,46.066 31.109,44.941 C 31.094,44.895 31.02,44.863 30.977,44.879 l -0.133,0.047 -0.121,-0.344 0.797,-0.293 0.5,1.391 c 0.082,0.222 0.21,0.242 0.39,0.179 0.149,-0.054 0.289,-0.16 0.395,-0.257 l -0.446,-1.231 -0.269,0.098 -0.121,-0.344 0.836,-0.305 0.582,1.618 c 0.015,0.042 0.09,0.085 0.136,0.07 l 0.133,-0.051 0.117,0.324 -0.679,0.25 c -0.067,0.024 -0.117,-0.015 -0.207,-0.211 -0.125,0.246 -0.313,0.434 -0.637,0.551 -0.285,0.106 -0.59,0.094 -0.734,-0.305"
             style="fill:#ffffff;fill-opacity:1;fill-rule:nonzero;stroke:none"
             id="path18034" />
        </g>
      </g>
    </g>
  </g>
  <g
     id="g18036"
     transform="scale(1.3333333)">
    <g
       id="g18038">
      <g
         id="g18040"
         clip-path="url(#clipPath18044)">
        <g
           id="g18046">
          <path
             d="M 5.836,34.926 7.77,34.469 8.113,35.137 6.09,36.914 C 6.043,36.969 6.02,37.039 6.051,37.098 L 6.082,37.164 5.742,37.34 5.168,36.219 5.508,36.043 5.676,36.371 7.195,35.09 7.191,35.082 4.867,35.637 4.625,35.164 6.422,33.582 6.418,33.574 4.789,33.98 C 4.582,34.012 4.512,34.102 4.59,34.254 l 0.074,0.148 -0.34,0.176 -0.519,-1.012 0.34,-0.179 0.027,0.058 c 0.035,0.067 0.117,0.098 0.199,0.086 l 2.609,-0.601 0.344,0.668 -1.492,1.32 z"
             style="fill:#ffffff;fill-opacity:1;fill-rule:nonzero;stroke:none"
             id="path18048" />
        </g>
      </g>
    </g>
  </g>
  <g
     id="g18050"
     transform="scale(1.3333333)">
    <g
       id="g18052">
      <g
         id="g18054"
         clip-path="url(#clipPath18058)">
        <g
           id="g18060">
          <path
             d="M 6.188,31.945 6.137,31.781 C 6.121,31.719 6.023,31.68 5.969,31.699 l -2,0.602 C 3.914,32.316 3.855,32.402 3.875,32.465 L 3.922,32.629 3.555,32.738 2.848,30.355 3.703,30.098 3.82,30.5 3.383,30.703 3.668,31.668 4.555,31.398 4.434,30.98 4.078,31.047 3.965,30.66 5.02,30.344 5.133,30.727 4.801,30.863 4.926,31.285 5.875,31 5.578,30.008 5.043,30.102 4.918,29.68 5.82,29.406 l 0.719,2.43 z"
             style="fill:#ffffff;fill-opacity:1;fill-rule:nonzero;stroke:none"
             id="path18062" />
        </g>
      </g>
    </g>
  </g>
  <g
     id="g18064"
     transform="scale(1.3333333)">
    <g
       id="g18066">
      <g
         id="g18068"
         clip-path="url(#clipPath18072)">
        <g
           id="g18074">
          <path
             d="M 5.625,28.246 5.695,28.77 4.766,28.902 4.703,28.434 5.176,28.305 C 5.199,28.191 5.207,28.066 5.18,27.844 5.125,27.469 4.934,27.332 4.664,27.367 4.305,27.418 4.316,27.805 4.254,28.25 4.191,28.676 3.984,28.973 3.473,29.043 2.887,29.125 2.512,28.762 2.422,28.105 2.395,27.895 2.387,27.727 2.395,27.633 l -0.067,-0.485 0.84,-0.117 0.062,0.457 -0.394,0.121 c -0.024,0.098 -0.031,0.223 -0.008,0.414 0.047,0.325 0.203,0.489 0.469,0.45 0.32,-0.043 0.348,-0.375 0.394,-0.762 0.067,-0.574 0.223,-0.883 0.774,-0.961 0.633,-0.09 1.027,0.262 1.129,1.012 0.027,0.199 0.031,0.367 0.031,0.484"
             style="fill:#ffffff;fill-opacity:1;fill-rule:nonzero;stroke:none"
             id="path18076" />
        </g>
      </g>
    </g>
  </g>
  <g
     id="g18078"
     transform="scale(1.3333333)">
    <g
       id="g18080">
      <g
         id="g18082"
         clip-path="url(#clipPath18086)">
        <g
           id="g18088">
          <path
             d="M 4.98,25.625 4.984,25.43 c 0,-0.071 -0.078,-0.129 -0.136,-0.129 l -2.207,-0.004 -0.008,0.504 0.648,0.051 -0.008,0.429 h -1.05 l 0.043,-2.668 h 1.05 L 3.309,24.047 2.66,24.102 2.652,24.605 H 4.859 C 4.918,24.605 5,24.543 5,24.477 l 0.004,-0.2 h 0.367 l -0.019,1.348 z"
             style="fill:#ffffff;fill-opacity:1;fill-rule:nonzero;stroke:none"
             id="path18090" />
        </g>
      </g>
    </g>
  </g>
  <g
     id="g18092"
     transform="scale(1.3333333)">
    <g
       id="g18094">
      <g
         id="g18096"
         clip-path="url(#clipPath18100)">
        <g
           id="g18102">
          <path
             d="M 5.035,23.125 5.059,22.957 C 5.07,22.891 5,22.816 4.941,22.809 L 2.879,22.484 C 2.82,22.477 2.734,22.527 2.723,22.594 L 2.695,22.758 2.32,22.699 2.695,20.242 3.574,20.379 3.508,20.793 3.031,20.789 2.879,21.781 3.793,21.926 3.859,21.492 3.512,21.398 3.574,21.004 4.66,21.172 4.602,21.57 4.242,21.551 4.176,21.984 5.152,22.137 5.309,21.113 4.785,20.965 4.852,20.531 5.781,20.676 5.398,23.184 Z"
             style="fill:#ffffff;fill-opacity:1;fill-rule:nonzero;stroke:none"
             id="path18104" />
        </g>
      </g>
    </g>
  </g>
  <g
     id="g18106"
     transform="scale(1.3333333)">
    <g
       id="g18108">
      <g
         id="g18110"
         clip-path="url(#clipPath18114)">
        <g
           id="g18116">
          <path
             d="M 4.609,18.625 4.715,18.309 C 4.855,17.883 4.684,17.727 4.398,17.629 4.109,17.535 3.887,17.559 3.746,17.988 l -0.101,0.317 z m 0.332,0.113 0.918,0.305 0.121,-0.367 0.352,0.117 -0.43,1.312 -0.351,-0.117 0.054,-0.16 C 5.625,19.762 5.57,19.68 5.516,19.66 L 3.531,19 C 3.477,18.98 3.383,19.016 3.359,19.078 l -0.05,0.16 -0.364,-0.121 0.418,-1.277 c 0.242,-0.738 0.657,-1.086 1.219,-0.899 0.398,0.133 0.504,0.434 0.445,0.899 l 0.016,0.008 c 0.176,-0.313 0.359,-0.414 0.883,-0.379 l 0.328,0.019 c 0.082,0.004 0.129,-0.031 0.141,-0.07 L 6.441,17.277 6.789,17.395 6.516,18.238 5.664,18.109 C 5.293,18.035 5.145,18.113 5.027,18.465 Z"
             style="fill:#ffffff;fill-opacity:1;fill-rule:nonzero;stroke:none"
             id="path18118" />
        </g>
      </g>
    </g>
  </g>
  <g
     id="g18120"
     transform="scale(1.3333333)">
    <g
       id="g18122">
      <g
         id="g18124"
         clip-path="url(#clipPath18128)">
        <g
           id="g18130">
          <path
             d="M 6.578,16.934 6.656,16.785 C 6.688,16.723 6.645,16.633 6.594,16.605 L 4.746,15.625 C 4.695,15.598 4.598,15.617 4.566,15.676 l -0.078,0.148 -0.34,-0.179 0.465,-0.883 2.34,-0.16 0.004,-0.012 -1.426,-0.758 -0.16,0.309 -0.34,-0.18 0.531,-1.02 0.34,0.18 -0.078,0.149 c -0.027,0.054 0.016,0.148 0.067,0.171 l 2.293,1.219 -0.274,0.52 -2.547,0.183 -0.008,0.012 1.594,0.844 0.168,-0.317 0.324,0.176 -0.539,1.027 z"
             style="fill:#ffffff;fill-opacity:1;fill-rule:nonzero;stroke:none"
             id="path18132" />
        </g>
      </g>
    </g>
  </g>
  <g
     id="g18134"
     transform="scale(1.3333333)">
    <g
       id="g18136">
      <g
         id="g18138"
         clip-path="url(#clipPath18142)">
        <g
           id="g18144">
          <path
             d="M 8.406,11.621 C 7.656,10.93 7.633,10.086 8.266,9.387 8.434,9.203 8.566,9.09 8.629,9.043 L 8.969,8.664 9.688,9.328 9.379,9.672 8.973,9.395 c -0.098,0.05 -0.231,0.144 -0.371,0.3 -0.317,0.344 -0.305,0.832 0.273,1.367 0.566,0.52 1.043,0.594 1.375,0.227 0.133,-0.148 0.191,-0.238 0.242,-0.344 L 10.02,10.508 9.812,10.738 9.531,10.477 10.352,9.57 10.637,9.832 10.562,9.91 c -0.042,0.047 -0.027,0.149 0.016,0.188 l 0.707,0.652 -0.242,0.27 c 0,0 -0.098,-0.04 -0.156,0.027 -0.055,0.183 -0.137,0.348 -0.332,0.566 -0.602,0.66 -1.399,0.696 -2.149,0.008"
             style="fill:#ffffff;fill-opacity:1;fill-rule:nonzero;stroke:none"
             id="path18146" />
        </g>
      </g>
    </g>
  </g>
  <g
     id="g18148"
     transform="scale(1.3333333)">
    <g
       id="g18150">
      <g
         id="g18152"
         clip-path="url(#clipPath18156)">
        <g
           id="g18158">
          <path
             d="M 12.711,7.566 C 12.246,6.957 11.742,6.871 11.375,7.156 11,7.445 10.961,7.957 11.422,8.566 c 0.465,0.606 0.961,0.692 1.336,0.403 0.367,-0.285 0.414,-0.797 -0.047,-1.403 m -1.859,1.426 c -0.625,-0.816 -0.411,-1.699 0.242,-2.203 0.648,-0.504 1.547,-0.488 2.172,0.332 0.625,0.817 0.41,1.699 -0.239,2.203 -0.652,0.504 -1.55,0.488 -2.175,-0.332"
             style="fill:#ffffff;fill-opacity:1;fill-rule:nonzero;stroke:none"
             id="path18160" />
        </g>
      </g>
    </g>
  </g>
  <g
     id="g18162"
     transform="scale(1.3333333)">
    <g
       id="g18164">
      <g
         id="g18166"
         clip-path="url(#clipPath18170)">
        <g
           id="g18172">
          <path
             d="M 13.27,5.883 C 13.215,5.84 13.141,5.816 13.082,5.848 l -0.09,0.05 -0.18,-0.339 1.133,-0.618 0.18,0.336 -0.324,0.18 1.582,1.504 0.008,-0.004 -0.313,-1.852 C 15.043,4.898 14.953,4.824 14.801,4.91 L 14.656,4.988 14.477,4.652 15.504,4.09 15.684,4.43 15.602,4.473 C 15.539,4.508 15.508,4.594 15.52,4.676 l 0.402,2.738 -0.621,0.34 z"
             style="fill:#ffffff;fill-opacity:1;fill-rule:nonzero;stroke:none"
             id="path18174" />
        </g>
      </g>
    </g>
  </g>
  <g
     id="g18176"
     transform="scale(1.3333333)">
    <g
       id="g18178">
      <g
         id="g18180"
         clip-path="url(#clipPath18184)">
        <g
           id="g18186">
          <path
             d="m 17.059,6.418 0.16,-0.059 C 17.281,6.34 17.312,6.242 17.293,6.188 L 16.598,4.219 C 16.578,4.164 16.492,4.109 16.43,4.133 l -0.16,0.055 -0.125,-0.36 2.335,-0.84 0.297,0.84 -0.39,0.141 -0.223,-0.426 -0.949,0.34 0.308,0.875 L 17.934,4.609 17.855,4.258 18.23,4.121 18.598,5.16 18.223,5.297 18.07,4.973 17.652,5.121 17.984,6.055 18.961,5.703 18.84,5.176 19.254,5.023 19.566,5.91 17.184,6.766 Z"
             style="fill:#ffffff;fill-opacity:1;fill-rule:nonzero;stroke:none"
             id="path18188" />
        </g>
      </g>
    </g>
  </g>
  <g
     id="g18190"
     transform="scale(1.3333333)">
    <g
       id="g18192">
      <g
         id="g18194"
         clip-path="url(#clipPath18198)">
        <g
           id="g18200">
          <path
             d="m 20.863,3.902 0.328,-0.058 c 0.446,-0.078 0.5,-0.305 0.45,-0.598 C 21.59,2.945 21.461,2.762 21.02,2.84 l -0.329,0.055 z m 0.059,0.34 0.168,0.957 0.383,-0.066 0.062,0.363 L 20.176,5.734 20.109,5.371 20.277,5.34 C 20.344,5.328 20.391,5.242 20.383,5.184 L 20.023,3.125 C 20.016,3.07 19.938,3 19.875,3.012 L 19.707,3.039 19.641,2.664 20.965,2.43 c 0.765,-0.133 1.269,0.07 1.371,0.652 0.07,0.414 -0.145,0.648 -0.582,0.816 l 0.004,0.02 c 0.355,0.004 0.531,0.117 0.75,0.594 l 0.137,0.304 c 0.035,0.075 0.089,0.094 0.128,0.09 L 22.918,4.879 22.98,5.242 22.109,5.398 21.82,4.586 C 21.707,4.223 21.566,4.129 21.203,4.195 Z"
             style="fill:#ffffff;fill-opacity:1;fill-rule:nonzero;stroke:none"
             id="path18202" />
        </g>
      </g>
    </g>
  </g>
  <g
     id="g18204"
     transform="scale(1.3333333)">
    <g
       id="g18206">
      <g
         id="g18208"
         clip-path="url(#clipPath18212)">
        <g
           id="g18214">
          <path
             d="m 23.48,4.805 h 0.168 c 0.067,0.004 0.129,-0.078 0.133,-0.133 l 0.004,-2.09 c 0,-0.059 -0.062,-0.141 -0.129,-0.141 L 23.488,2.438 V 2.055 l 0.996,0.015 1.235,2.02 H 25.73 L 25.734,2.477 25.387,2.469 25.391,2.086 26.539,2.105 V 2.488 L 26.371,2.484 c -0.062,0 -0.125,0.078 -0.125,0.137 L 26.242,5.219 25.652,5.207 24.305,3.012 H 24.293 L 24.285,4.816 24.641,4.82 V 5.191 L 23.48,5.172 Z"
             style="fill:#ffffff;fill-opacity:1;fill-rule:nonzero;stroke:none"
             id="path18216" />
        </g>
      </g>
    </g>
  </g>
  <g
     id="g18218"
     transform="scale(1.3333333)">
    <g
       id="g18220">
      <g
         id="g18222"
         clip-path="url(#clipPath18226)">
        <g
           id="g18228">
          <path
             d="M 29.504,4.129 C 29.637,3.375 29.359,2.941 28.902,2.859 28.438,2.773 28.031,3.086 27.898,3.84 27.766,4.59 28.035,5.02 28.5,5.105 28.961,5.188 29.367,4.879 29.504,4.129 M 27.199,3.703 c 0.18,-1.015 0.973,-1.445 1.781,-1.301 0.813,0.149 1.407,0.828 1.227,1.84 C 30.023,5.258 29.234,5.688 28.422,5.543 27.609,5.395 27.02,4.715 27.199,3.703"
             style="fill:#ffffff;fill-opacity:1;fill-rule:nonzero;stroke:none"
             id="path18230" />
        </g>
      </g>
    </g>
  </g>
  <g
     id="g18232"
     transform="scale(1.3333333)">
    <g
       id="g18234">
      <g
         id="g18236"
         clip-path="url(#clipPath18240)">
        <g
           id="g18242">
          <path
             d="m 31.816,4.645 0.313,0.113 C 32.551,4.914 32.711,4.742 32.812,4.465 32.914,4.18 32.898,3.953 32.477,3.801 L 32.16,3.684 Z M 31.695,4.969 31.367,5.883 31.73,6.02 31.605,6.363 30.309,5.891 30.434,5.543 30.594,5.602 C 30.656,5.625 30.742,5.57 30.762,5.516 L 31.473,3.551 C 31.492,3.496 31.461,3.398 31.395,3.375 l -0.157,-0.059 0.129,-0.359 1.262,0.461 c 0.73,0.27 1.066,0.695 0.867,1.254 -0.144,0.394 -0.449,0.488 -0.91,0.414 l -0.004,0.019 c 0.309,0.184 0.402,0.368 0.356,0.891 l -0.032,0.332 c -0.004,0.082 0.032,0.129 0.067,0.145 l 0.14,0.05 -0.129,0.348 -0.832,-0.305 0.153,-0.847 C 32.387,5.344 32.312,5.195 31.965,5.07 Z"
             style="fill:#ffffff;fill-opacity:1;fill-rule:nonzero;stroke:none"
             id="path18244" />
        </g>
      </g>
    </g>
  </g>
  <g
     id="g18246"
     transform="scale(1.3333333)">
    <g
       id="g18248">
      <g
         id="g18250"
         clip-path="url(#clipPath18254)">
        <g
           id="g18256">
          <path
             d="m 33.953,7.391 -0.465,-0.258 0.453,-0.824 0.414,0.23 -0.179,0.457 c 0.074,0.086 0.168,0.172 0.363,0.277 0.332,0.188 0.559,0.114 0.691,-0.125 C 35.402,6.832 35.086,6.609 34.77,6.289 34.469,5.984 34.355,5.641 34.605,5.188 34.891,4.668 35.406,4.59 35.98,4.91 c 0.188,0.106 0.325,0.203 0.395,0.262 l 0.43,0.238 -0.41,0.746 -0.407,-0.222 0.145,-0.391 C 36.066,5.465 35.973,5.379 35.805,5.289 35.516,5.125 35.293,5.156 35.164,5.391 c -0.156,0.281 0.094,0.504 0.371,0.773 0.422,0.402 0.574,0.711 0.309,1.199 C 35.535,7.922 35.016,8.027 34.355,7.656 34.18,7.559 34.047,7.461 33.953,7.391"
             style="fill:#ffffff;fill-opacity:1;fill-rule:nonzero;stroke:none"
             id="path18258" />
        </g>
      </g>
    </g>
  </g>
  <g
     id="g18260"
     transform="scale(1.3333333)">
    <g
       id="g18262">
      <g
         id="g18264"
         clip-path="url(#clipPath18268)">
        <g
           id="g18270">
          <path
             d="M 39.617,10.156 40.695,8.988 40.438,8.746 40.699,8.465 41.543,9.258 41.281,9.539 41.16,9.422 C 41.109,9.375 41.012,9.395 40.973,9.434 l -0.953,1.031 c -0.543,0.59 -1.106,0.648 -1.731,0.062 C 37.695,9.973 37.668,9.359 38.211,8.77 L 39.16,7.738 c 0.043,-0.043 0.051,-0.144 0,-0.187 L 39.035,7.43 39.293,7.148 40.277,8.07 40.02,8.352 39.762,8.113 38.684,9.281 c -0.395,0.426 -0.329,0.699 -0.036,0.977 0.293,0.273 0.571,0.324 0.969,-0.102"
             style="fill:#ffffff;fill-opacity:1;fill-rule:nonzero;stroke:none"
             id="path18272" />
        </g>
      </g>
    </g>
  </g>
  <g
     id="g18274"
     transform="scale(1.3333333)">
    <g
       id="g18276">
      <g
         id="g18278"
         clip-path="url(#clipPath18282)">
        <g
           id="g18284">
          <path
             d="m 39.988,11.625 0.102,0.137 c 0.039,0.054 0.14,0.054 0.187,0.019 l 1.664,-1.261 c 0.047,-0.036 0.071,-0.133 0.032,-0.188 l -0.102,-0.137 0.305,-0.23 0.597,0.801 -0.847,2.199 0.008,0.008 1.285,-0.977 -0.207,-0.277 0.304,-0.231 0.688,0.918 -0.305,0.231 -0.097,-0.129 c -0.04,-0.051 -0.137,-0.051 -0.188,-0.016 l -2.066,1.57 -0.352,-0.472 0.918,-2.399 -0.008,-0.011 -1.433,1.093 0.211,0.282 -0.293,0.226 -0.696,-0.929 z"
             style="fill:#ffffff;fill-opacity:1;fill-rule:nonzero;stroke:none"
             id="path18286" />
        </g>
      </g>
    </g>
  </g>
  <g
     id="g18288"
     transform="scale(1.3333333)">
    <g
       id="g18290">
      <g
         id="g18292"
         clip-path="url(#clipPath18296)">
        <g
           id="g18298">
          <path
             d="m 42.105,14.629 0.098,0.18 c 0.031,0.054 0.133,0.07 0.184,0.043 l 1.824,-1.016 c 0.051,-0.027 0.09,-0.125 0.059,-0.18 l -0.098,-0.176 0.336,-0.187 0.652,1.191 -0.336,0.184 -0.097,-0.18 c -0.032,-0.058 -0.129,-0.07 -0.18,-0.043 l -1.824,1.016 c -0.051,0.031 -0.094,0.121 -0.063,0.18 L 42.762,15.82 42.438,16 41.781,14.809 Z"
             style="fill:#ffffff;fill-opacity:1;fill-rule:nonzero;stroke:none"
             id="path18300" />
        </g>
      </g>
    </g>
  </g>
  <g
     id="g18302"
     transform="scale(1.3333333)">
    <g
       id="g18304">
      <g
         id="g18306"
         clip-path="url(#clipPath18310)">
        <g
           id="g18312">
          <path
             d="m 45.172,15.594 c 0.051,-0.047 0.082,-0.117 0.058,-0.18 l -0.039,-0.098 0.356,-0.136 0.469,1.203 -0.356,0.14 -0.133,-0.343 -1.687,1.394 0.004,0.012 1.867,-0.094 c 0.207,-0.008 0.293,-0.09 0.23,-0.254 l -0.062,-0.152 0.359,-0.141 0.422,1.094 -0.355,0.141 -0.035,-0.09 c -0.028,-0.07 -0.106,-0.11 -0.188,-0.106 l -2.758,0.078 -0.254,-0.66 z"
             style="fill:#ffffff;fill-opacity:1;fill-rule:nonzero;stroke:none"
             id="path18314" />
        </g>
      </g>
    </g>
  </g>
  <g
     id="g18316"
     transform="scale(1.3333333)">
    <g
       id="g18318">
      <g
         id="g18320"
         clip-path="url(#clipPath18324)">
        <g
           id="g18326">
          <path
             d="m 44.184,19.391 0.039,0.164 c 0.011,0.066 0.105,0.109 0.16,0.097 l 2.039,-0.453 c 0.058,-0.011 0.121,-0.09 0.109,-0.156 l -0.039,-0.164 0.375,-0.086 0.528,2.43 -0.868,0.191 -0.089,-0.406 0.449,-0.172 -0.211,-0.981 -0.906,0.2 0.093,0.425 0.356,-0.039 0.086,0.395 -1.075,0.238 -0.085,-0.394 0.339,-0.11 -0.093,-0.429 -0.965,0.211 0.222,1.015 0.54,-0.055 0.093,0.43 -0.918,0.203 -0.539,-2.476 z"
             style="fill:#ffffff;fill-opacity:1;fill-rule:nonzero;stroke:none"
             id="path18328" />
        </g>
      </g>
    </g>
  </g>
  <g
     id="g18330"
     transform="scale(1.3333333)">
    <g
       id="g18332">
      <g
         id="g18334"
         clip-path="url(#clipPath18338)">
        <g
           id="g18340">
          <path
             d="m 46.188,23.434 0.015,0.332 c 0.02,0.449 0.238,0.531 0.539,0.515 0.301,-0.015 0.5,-0.117 0.477,-0.566 l -0.016,-0.336 z m -0.348,0.015 -0.969,0.051 0.016,0.387 -0.367,0.019 -0.071,-1.379 0.371,-0.019 0.008,0.168 c 0.004,0.07 0.086,0.125 0.145,0.125 l 2.086,-0.11 c 0.058,-0.003 0.136,-0.07 0.132,-0.136 l -0.011,-0.168 0.382,-0.02 0.067,1.344 c 0.039,0.773 -0.223,1.25 -0.813,1.281 -0.418,0.02 -0.625,-0.222 -0.738,-0.676 h -0.019 c -0.047,0.356 -0.184,0.516 -0.684,0.676 l -0.316,0.098 c -0.079,0.027 -0.106,0.078 -0.106,0.117 l 0.008,0.148 -0.371,0.02 -0.043,-0.887 0.84,-0.191 c 0.375,-0.067 0.484,-0.192 0.465,-0.563 z"
             style="fill:#ffffff;fill-opacity:1;fill-rule:nonzero;stroke:none"
             id="path18342" />
        </g>
      </g>
    </g>
  </g>
  <g
     id="g18344"
     transform="scale(1.3333333)">
    <g
       id="g18346">
      <g
         id="g18348"
         clip-path="url(#clipPath18352)">
        <g
           id="g18354">
          <path
             d="m 44.504,26.398 0.051,-0.527 0.937,0.098 -0.051,0.469 -0.488,0.011 c -0.051,0.102 -0.09,0.223 -0.109,0.446 -0.039,0.378 0.117,0.558 0.386,0.585 0.36,0.036 0.438,-0.339 0.606,-0.757 0.16,-0.399 0.43,-0.637 0.945,-0.582 0.59,0.058 0.867,0.504 0.801,1.16 -0.023,0.215 -0.059,0.379 -0.082,0.465 l -0.051,0.488 -0.844,-0.086 0.043,-0.461 0.414,-0.019 c 0.047,-0.09 0.086,-0.211 0.106,-0.403 0.031,-0.328 -0.082,-0.523 -0.348,-0.551 -0.324,-0.031 -0.429,0.286 -0.562,0.645 -0.203,0.543 -0.426,0.809 -0.981,0.75 -0.632,-0.063 -0.933,-0.504 -0.859,-1.254 0.02,-0.199 0.055,-0.363 0.086,-0.477"
             style="fill:#ffffff;fill-opacity:1;fill-rule:nonzero;stroke:none"
             id="path18356" />
        </g>
      </g>
    </g>
  </g>
  <g
     id="g18358"
     transform="scale(1.3333333)">
    <g
       id="g18360">
      <g
         id="g18362"
         clip-path="url(#clipPath18366)">
        <g
           id="g18368">
          <path
             d="m 44.578,28.727 -0.043,0.199 c -0.015,0.062 0.051,0.14 0.106,0.152 l 2.035,0.465 c 0.058,0.012 0.152,-0.031 0.164,-0.09 l 0.043,-0.203 0.375,0.086 -0.297,1.328 -0.371,-0.086 0.043,-0.199 c 0.015,-0.067 -0.051,-0.141 -0.11,-0.156 l -2.035,-0.461 c -0.054,-0.012 -0.148,0.027 -0.16,0.09 l -0.047,0.199 -0.359,-0.082 0.297,-1.324 z"
             style="fill:#ffffff;fill-opacity:1;fill-rule:nonzero;stroke:none"
             id="path18370" />
        </g>
      </g>
    </g>
  </g>
  <g
     id="g18372"
     transform="scale(1.3333333)">
    <g
       id="g18374">
      <g
         id="g18376"
         clip-path="url(#clipPath18380)">
        <g
           id="g18382">
          <path
             d="m 43.938,31.238 -0.067,0.184 c -0.023,0.062 0.027,0.148 0.082,0.172 l 2.074,0.761 0.172,-0.472 -0.594,-0.27 0.149,-0.406 0.984,0.363 -0.91,2.508 -0.984,-0.363 0.144,-0.406 0.629,0.175 0.172,-0.472 -2.07,-0.766 c -0.055,-0.019 -0.153,0.012 -0.176,0.074 l -0.066,0.184 -0.348,-0.129 0.461,-1.266 z"
             style="fill:#ffffff;fill-opacity:1;fill-rule:nonzero;stroke:none"
             id="path18384" />
        </g>
      </g>
    </g>
  </g>
  <g
     id="g18386"
     transform="scale(1.3333333)">
    <g
       id="g18388">
      <g
         id="g18390"
         clip-path="url(#clipPath18394)">
        <g
           id="g18396">
          <path
             d="m 42.746,34.117 -0.094,0.172 c -0.035,0.059 0.008,0.152 0.055,0.18 l 0.672,0.375 1.601,-0.102 c 0.075,-0.004 0.137,-0.027 0.161,-0.074 l 0.05,-0.09 0.332,0.184 -0.613,1.121 -0.336,-0.184 0.172,-0.312 -1.203,0.051 -0.004,0.007 0.414,0.731 c 0.117,0.199 0.258,0.183 0.348,0.019 l 0.062,-0.113 0.332,0.188 -0.558,1.015 -0.332,-0.187 0.035,-0.067 c 0.035,-0.058 0.023,-0.133 -0.02,-0.215 l -0.754,-1.351 -0.691,-0.387 c -0.051,-0.027 -0.152,-0.012 -0.184,0.047 l -0.093,0.172 -0.325,-0.18 0.649,-1.179 z"
             style="fill:#ffffff;fill-opacity:1;fill-rule:nonzero;stroke:none"
             id="path18398" />
        </g>
      </g>
    </g>
  </g>
  <g
     id="g18400"
     transform="scale(1.3333333)">
    <g
       id="g18402">
      <g
         id="g18404"
         clip-path="url(#clipPath18408)">
        <g
           id="g18410">
          <path
             d="m 22.93,27.504 -0.371,-1.301 c 0.257,-0.187 0.535,-0.348 0.839,-0.476 z m 13.203,-9.707 v 0.949 h 1.937 v 8.176 c 0,2.543 -1.172,3.68 -3.797,3.68 -2.632,0 -3.855,-1.168 -3.855,-3.68 v -8.176 h 1.937 v -0.949 h -4.843 v 0.949 h 0.929 c 0.289,0 0.543,0.313 0.543,0.563 v 5.164 c -0.027,0.273 -0.152,0.402 -0.269,0.418 -0.403,-0.184 -1.414,-0.621 -3.18,-0.621 -0.183,0 -0.367,0.007 -0.547,0.019 l 1.774,-6.637 c 0.121,-0.429 0.465,-0.73 0.84,-0.73 h 0.503 v -0.945 h -4.261 v 0.945 h 0.988 c 0.285,0 0.473,0.062 0.574,0.195 0.129,0.164 0.137,0.453 0.032,0.879 l -1.711,6.481 c -0.536,0.128 -1.039,0.32 -1.5,0.57 l -2.598,-9.07 h -1.063 l -3.312,11.562 -2.77,-10.617 h 1.868 V 15.977 H 9.918 v 0.945 h 0.5 c 0.324,0 0.711,0.34 0.82,0.711 l 3.2,12.133 h 1.374 l 3.18,-11.102 2.063,7.215 c -0.047,0.043 -0.094,0.086 -0.141,0.129 -1.234,1.222 -1.887,3.023 -1.887,5.215 0,2.269 0.567,4.035 1.676,5.25 1.086,1.183 2.625,1.781 4.582,1.781 1.766,0 2.973,-0.539 3.488,-0.77 l 0.059,-0.023 c 0.18,0.019 0.273,0.305 0.289,0.586 l 0.004,0.109 h 0.961 v -4.84 c 0,-0.254 0.289,-0.546 0.543,-0.546 h 0.812 v -0.946 h -4.742 v 0.946 h 1.977 v 3.41 c -0.688,0.488 -1.692,1.031 -3.352,1.031 -1.562,0 -2.765,-0.5 -3.574,-1.481 -0.832,-1.011 -1.25,-2.542 -1.25,-4.546 0,-1.582 0.324,-2.872 0.973,-3.848 l 0.695,2.43 h 1.355 l 1.176,-4.391 c 0.278,-0.039 0.559,-0.063 0.856,-0.063 1.465,0 2.761,0.512 3.429,1.344 v 0.246 c 0,1.653 0.496,2.899 1.473,3.7 0.871,0.718 2.129,1.082 3.738,1.082 3.34,0 5.035,-1.61 5.035,-4.782 v -7.593 c 0,-0.243 0.27,-0.563 0.543,-0.563 h 0.93 v -0.949 z"
             style="fill:#092744;fill-opacity:1;fill-rule:nonzero;stroke:none"
             id="path18412" />
        </g>
      </g>
    </g>
  </g>
</svg>
